<?xml version="1.0" encoding="UTF-8"?>
<svg xmlns="http://www.w3.org/2000/svg" xmlns:xlink="http://www.w3.org/1999/xlink" width="60px" height="61px" viewBox="0 0 60 61" version="1.1">
<g id="surface1">
<path style=" stroke:none;fill-rule:nonzero;fill:rgb(0%,0%,0%);fill-opacity:1;" d="M 1.304688 20.363281 L 13.589844 20.363281 L 13.589844 60.542969 L 1.304688 60.542969 Z M 7.449219 0.390625 C 11.375 0.390625 14.566406 3.632812 14.566406 7.632812 C 14.566406 11.628906 11.375 14.871094 7.449219 14.871094 C 3.511719 14.871094 0.328125 11.628906 0.328125 7.632812 C 0.328125 3.632812 3.511719 0.390625 7.449219 0.390625 "/>
<path style=" stroke:none;fill-rule:nonzero;fill:rgb(0%,0%,0%);fill-opacity:1;" d="M 21.296875 20.363281 L 33.078125 20.363281 L 33.078125 25.855469 L 33.246094 25.855469 C 34.886719 22.695312 38.894531 19.367188 44.867188 19.367188 C 57.308594 19.367188 59.601562 27.6875 59.601562 38.503906 L 59.601562 60.542969 L 47.324219 60.542969 L 47.324219 41.003906 C 47.324219 36.34375 47.246094 30.347656 40.941406 30.347656 C 34.550781 30.347656 33.574219 35.429688 33.574219 40.667969 L 33.574219 60.542969 L 21.296875 60.542969 Z M 21.296875 20.363281 "/>
</g>
</svg>
