<?xml version="1.0" encoding="UTF-8"?>
<svg xmlns="http://www.w3.org/2000/svg" xmlns:xlink="http://www.w3.org/1999/xlink" width="50px" height="51px" viewBox="0 0 50 51" version="1.1">
<g id="surface1">
<path style=" stroke:none;fill-rule:nonzero;fill:rgb(0%,0%,0%);fill-opacity:1;" d="M 1.085938 17.023438 L 11.324219 17.023438 L 11.324219 50.617188 L 1.085938 50.617188 Z M 6.207031 0.328125 C 9.480469 0.328125 12.136719 3.039062 12.136719 6.382812 C 12.136719 9.722656 9.480469 12.433594 6.207031 12.433594 C 2.925781 12.433594 0.273438 9.722656 0.273438 6.382812 C 0.273438 3.039062 2.925781 0.328125 6.207031 0.328125 "/>
<path style=" stroke:none;fill-rule:nonzero;fill:rgb(0%,0%,0%);fill-opacity:1;" d="M 17.746094 17.023438 L 27.566406 17.023438 L 27.566406 21.617188 L 27.707031 21.617188 C 29.074219 18.976562 32.410156 16.191406 37.390625 16.191406 C 47.757812 16.191406 49.667969 23.148438 49.667969 32.191406 L 49.667969 50.617188 L 39.4375 50.617188 L 39.4375 34.28125 C 39.4375 30.386719 39.371094 25.371094 34.117188 25.371094 C 28.792969 25.371094 27.980469 29.621094 27.980469 34 L 27.980469 50.617188 L 17.746094 50.617188 Z M 17.746094 17.023438 "/>
</g>
</svg>
